:version 1.10
:name ASF
:units
  mass 1
  length 1
  angle deg
:documentation
  ASF file generated by Kaydara
:root
  axis xyz
  order  tx ty tz rx ry rz
  position 0 0 0
  orientation 0 0 0
:bonedata
  begin
    id 1
    name RightUpLegDummy
    direction -0.65628 -0.754516 0.00165102
    length 4.76918
    axis 0 0 0 xyz
  end
  begin
    id 2
    name RightUpLeg
    direction -0.145584 -0.923362 0.355256
    length 17.9961
    axis -24.7611 -13.1006 1.78531 xyz
    dof rx ry rz
  end
  begin
    id 3
    name RightLeg
    direction 0.263379 0.172355 -0.949171
    length 13.3386
    axis 89.6202 -21.1929 12.3855 xyz
    dof rx ry rz
  end
  begin
    id 4
    name RightFoot
    direction 0.224283 -0.968777 -0.105675
    length 5.86697
    axis 56.995 -39.6905 17.3365 xyz
    dof rx ry rz
  end
  begin
    id 5
    name RightToes
    direction -0.0806345 -0.9037 0.420506
    length 4.75197
    axis 146.825 -39.7828 17.6019 xyz
    dof rx ry rz
  end
  begin
    id 6
    name SpineDummy
    direction -3.39852e-014 1 9.33296e-014
    length 8.13779
    axis 0 0 0 xyz
  end
  begin
    id 7
    name Spine
    direction -0.156609 0.733703 0.661176
    length 7.14978
    axis 41.2365 5.68757 17.0844 xyz
    dof rx ry rz
  end
  begin
    id 8
    name Spine1
    direction 0 0 0
    length 0
    axis 42.8809 47.8308 -3.36039 xyz
    dof rx ry rz
  end
  begin
    id 9
    name HEadDummy
    direction 0.546431 0.701947 0.456819
    length 3.55512
    axis 42.8809 47.8308 -3.36039 xyz
  end
  begin
    id 10
    name HEad
    direction 0.23444 0.828559 0.508457
    length 7.35827
    axis 51.1864 49.2662 27.4903 xyz
    dof rx ry rz
  end
  begin
    id 11
    name LeftShoulder1Dummy
    direction 0.431183 0.475873 -0.766568
    length 2.49352
    axis 42.8809 47.8308 -3.36039 xyz
  end
  begin
    id 12
    name LeftShoulder1
    direction 0.268187 -0.383402 -0.883786
    length 4.48604
    axis -119.517 0.106469 35.1736 xyz
    dof rx ry rz
  end
  begin
    id 13
    name LeftArm
    direction 0.380567 -0.703221 -0.600541
    length 10.1142
    axis -5.41825 36.2925 7.8293 xyz
    dof rx ry rz
  end
  begin
    id 14
    name LeftForeArm
    direction 0.541071 -0.732356 -0.413396
    length 9.39839
    axis 4.65387 33.7604 7.81644 xyz
    dof rx ry rz
  end
  begin
    id 15
    name LeftHand
    direction 0.847511 -0.389379 -0.360707
    length 3.66142
    axis 7.65593 21.1436 -24.6758 xyz
    dof rx ry rz
  end
  begin
    id 16
    name RightShoulderDummy
    direction -0.692546 0.541855 0.476208
    length 2.49352
    axis 42.8809 47.8308 -3.36039 xyz
  end
  begin
    id 17
    name RightShoulder
    direction -0.870808 -0.316653 0.376065
    length 4.48602
    axis 141.571 51.133 -100.254 xyz
    dof rx ry rz
  end
  begin
    id 18
    name RightArm
    direction 0.366897 -0.87275 0.322015
    length 10.1142
    axis 92.3258 71.2036 138.917 xyz
    dof rx ry rz
  end
  begin
    id 19
    name RightForeArm
    direction 0.702487 -0.694568 0.155197
    length 9.39835
    axis 153.863 41.5092 -176.604 xyz
    dof rx ry rz
  end
  begin
    id 20
    name RightHand
    direction 0.79502 -0.601276 0.0800636
    length 3.66142
    axis 154.247 4.59222 142.9 xyz
    dof rx ry rz
  end
  begin
    id 21
    name LeftUpLegDummy
    direction 0.65628 -0.754516 0.00165102
    length 4.76919
    axis 0 0 0 xyz
  end
  begin
    id 22
    name LeftUpLeg
    direction -0.1277 -0.689368 0.713067
    length 17.9961
    axis -48.3385 -17.8675 0.791927 xyz
    dof rx ry rz
  end
  begin
    id 23
    name LeftLeg
    direction 0.109849 -0.991246 -0.0732378
    length 13.3386
    axis -2.05791 -7.30784 1.72042 xyz
    dof rx ry rz
  end
  begin
    id 24
    name LeftFoot
    direction 0.0448355 -0.272614 0.961078
    length 5.86697
    axis -18.7733 -7.89606 10.2113 xyz
    dof rx ry rz
  end
  begin
    id 25
    name LeftToes
    direction -0.18506 0.293668 0.937823
    length 4.75197
    axis 71.2267 -7.89606 10.2113 xyz
    dof rx ry rz
  end
:hierarchy
  begin
    root RightUpLegDummy SpineDummy LeftUpLegDummy
    RightUpLegDummy RightUpLeg
    RightUpLeg RightLeg
    RightLeg RightFoot
    RightFoot RightToes
    SpineDummy Spine
    Spine Spine1
    Spine1 HEadDummy LeftShoulder1Dummy RightShoulderDummy
    HEadDummy HEad
    LeftShoulder1Dummy LeftShoulder1
    LeftShoulder1 LeftArm
    LeftArm LeftForeArm
    LeftForeArm LeftHand
    RightShoulderDummy RightShoulder
    RightShoulder RightArm
    RightArm RightForeArm
    RightForeArm RightHand
    LeftUpLegDummy LeftUpLeg
    LeftUpLeg LeftLeg
    LeftLeg LeftFoot
    LeftFoot LeftToes
  end

:SAMPLES-PER-SECOND 30
:FULLY-SPECIFIED
:DEGREES
64
root  -11.3586 38.1135 2.10332 169.467 32.0154 161.39
RightUpLeg  8.13248 12.7411 5.70853
RightLeg  -73.8977 -21.6095 15.7321
RightFoot  13.4871 7.60274 -19.5499
RightToes  -1.27222e-014 -6.36111e-015 6.36111e-015
Spine  -21.1266 -17.7745 -14.6749
Spine1  -6.65364 -12.8539 38.3607
HEad  -0.43893 -4.54302 -22.0412
LeftShoulder1  6.36111e-015 -1.33558e-015 6.49777e-015
LeftArm  33.9641 -14.6901 -50.2353
LeftForeArm  -19.0188 -47.4661 13.657
LeftHand  -2.03851 -4.28492 -8.82601
RightShoulder  -4.77083e-015 -6.36111e-015 -3.18055e-015
RightArm  59.8025 -31.673 1.68069
RightForeArm  -5.78723 -5.61678 1.27842
RightHand  -0.151797 1.82352 -1.41053
LeftUpLeg  17.9523 17.5572 9.48869
LeftLeg  -23.534 -8.73734 -7.37841
LeftFoot  7.29849 8.64217 -23.3672
LeftToes  9.54166e-015 -1.91609e-011 -2.3878e-011
65
root  -11.5888 37.3161 3.15043 169.752 28.4514 160.266
RightUpLeg  4.51972 11.1254 4.58529
RightLeg  -71.6976 -23.9751 17.867
RightFoot  8.53963 8.59369 -20.9586
RightToes  -1.27222e-014 -6.36111e-015 6.36111e-015
Spine  -20.9447 -19.8169 -15.7034
Spine1  -4.85203 -14.0385 39.3997
HEad  -4.92025 -4.99748 -22.9536
LeftShoulder1  6.36111e-015 -1.33558e-015 6.49777e-015
LeftArm  31.112 -17.8469 -49.1461
LeftForeArm  -23.8235 -48.2958 16.6626
LeftHand  -1.67666 -3.31332 -7.52751
RightShoulder  -4.77083e-015 -6.36111e-015 -3.18055e-015
RightArm  62.5888 -35.2917 -8.76138
RightForeArm  -6.39363 -6.81781 1.00659
RightHand  0.125329 1.27589 -2.88774
LeftUpLeg  19.2665 18.9076 13.2642
LeftLeg  -22.2706 -4.38186 -7.76307
LeftFoot  8.14757 7.06395 -18.7618
LeftToes  9.54166e-015 -1.91609e-011 -2.3878e-011
66
root  -11.7575 36.369 4.10189 170.226 26.7524 160.426
RightUpLeg  1.08868 8.61786 4.86298
RightLeg  -68.9532 -26.5189 19.3657
RightFoot  3.27193 9.93634 -23.5033
RightToes  -1.27222e-014 -6.36111e-015 6.36111e-015
Spine  -21.4582 -21.1416 -16.0798
Spine1  -2.57814 -14.9559 40.3962
HEad  -10.7264 -4.03869 -23.9148
LeftShoulder1  6.36111e-015 -1.33558e-015 6.49777e-015
LeftArm  28.0227 -20.1815 -47.5302
LeftForeArm  -27.1092 -49.4453 19.3209
LeftHand  -0.977739 -1.42325 -6.09315
RightShoulder  -4.77083e-015 -6.36111e-015 -3.18055e-015
RightArm  65.3713 -38.2167 -17.1497
RightForeArm  -9.55093 -10.8779 -1.13996
RightHand  0.601589 0.317362 -5.11841
LeftUpLeg  22.2657 22.5669 21.1154
LeftLeg  -18.2359 -7.97197 -2.64739
LeftFoot  8.24598 6.29554 -16.7074
LeftToes  9.54166e-015 -1.91609e-011 -2.3878e-011
67
root  -11.865 35.5232 4.91147 170.227 26.623 161.37
RightUpLeg  -0.667338 6.65529 6.39083
RightLeg  -67.1503 -28.5645 20.5659
RightFoot  -1.0516 11.0979 -26.2747
RightToes  -1.27222e-014 -6.36111e-015 6.36111e-015
Spine  -21.736 -22.2732 -16.6279
Spine1  -0.769078 -15.7154 41.7963
HEad  -16.2412 -1.90941 -23.7204
LeftShoulder1  6.36111e-015 -1.33558e-015 6.49777e-015
LeftArm  25.5201 -20.7081 -45.6878
LeftForeArm  -29.8747 -50.6607 21.9474
LeftHand  -0.323735 0.299071 -5.10876
RightShoulder  -4.77083e-015 -6.36111e-015 -3.18055e-015
RightArm  67.913 -41.0576 -19.8858
RightForeArm  -16.5168 -17.1521 -5.48118
RightHand  1.14917 -0.71187 -7.44958
LeftUpLeg  26.4231 17.7964 25.9122
LeftLeg  -12.5071 -7.35171 -1.07586
LeftFoot  6.97725 5.40307 -14.8452
LeftToes  9.54166e-015 -1.91609e-011 -2.3878e-011
68
root  -11.9187 35.1377 5.57067 169.88 26.7081 162.481
RightUpLeg  -0.741991 5.48042 7.95847
RightLeg  -66.7672 -28.9678 20.7453
RightFoot  -2.57544 11.4587 -27.2758
RightToes  -1.27222e-014 -6.36111e-015 6.36111e-015
Spine  -21.8797 -23.9365 -17.4804
Spine1  0.077981 -16.8037 43.882
HEad  -19.2147 1.03792 -21.8464
LeftShoulder1  6.36111e-015 -1.33558e-015 6.49777e-015
LeftArm  24.6354 -19.5902 -44.3715
LeftForeArm  -32.9342 -50.7213 23.7872
LeftHand  -0.0786385 0.915781 -4.72136
RightShoulder  -4.77083e-015 -6.36111e-015 -3.18055e-015
RightArm  71.7393 -42.6273 -28.0454
RightForeArm  -21.8841 -12.454 -8.12708
RightHand  1.34419 -0.767538 -8.74948
LeftUpLeg  31.6046 10.1494 26.4465
LeftLeg  -6.08884 -3.35314 -0.983657
LeftFoot  6.64904 4.57687 -12.7038
LeftToes  9.54166e-015 -1.91609e-011 -2.3878e-011
69
root  -11.9446 35.4179 6.10726 169.841 25.8693 163.478
RightUpLeg  0.0580278 4.65763 8.78883
RightLeg  -69.1372 -27.6255 20.8939
RightFoot  -0.660586 11.618 -27.5435
RightToes  -1.27222e-014 -6.36111e-015 6.36111e-015
Spine  -22.4267 -26.3039 -18.2646
Spine1  -0.162407 -18.3835 46.5921
HEad  -18.8998 4.15415 -19.5514
LeftShoulder1  6.36111e-015 -1.33558e-015 6.49777e-015
LeftArm  25.9923 -18.4078 -44.642
LeftForeArm  -35.7785 -49.7953 24.4785
LeftHand  -0.201173 0.564941 -4.7428
RightShoulder  -4.77083e-015 -6.36111e-015 -3.18055e-015
RightArm  75.2986 -43.7316 -30.3704
RightForeArm  -27.9713 -4.4786 -13.2824
RightHand  0.868577 0.539779 -7.60575
LeftUpLeg  36.8932 3.67885 22.0639
LeftLeg  0.918105 -0.519896 -0.113637
LeftFoot  6.74424 4.43336 -12.2777
LeftToes  9.54166e-015 -1.91609e-011 -2.3878e-011
70
root  -12.0054 36.3059 6.60479 170.733 24.5957 164.472
RightUpLeg  1.02117 3.85847 9.16467
RightLeg  -74.8743 -24.7813 21.641
RightFoot  4.15014 12.7455 -29.7145
RightToes  -1.27222e-014 -6.36111e-015 6.36111e-015
Spine  -23.7085 -28.6196 -18.5959
Spine1  -1.29447 -19.813 49.3778
HEad  -16.4841 6.46275 -17.9649
LeftShoulder1  6.36111e-015 -1.33558e-015 6.49777e-015
LeftArm  28.993 -18.0646 -46.8724
LeftForeArm  -37.9589 -49.4958 25.4015
LeftHand  -0.703279 -0.658982 -5.8132
RightShoulder  -4.77083e-015 -6.36111e-015 -3.18055e-015
RightArm  78.4576 -44.8376 -30.5877
RightForeArm  -33.7626 4.47865 -21.2113
RightHand  -0.056393 2.91305 -4.28666
LeftUpLeg  41.1779 0.940965 15.9419
LeftLeg  8.09073 -2.15515 0.236238
LeftFoot  5.51887 4.2246 -12.0923
LeftToes  9.54166e-015 -1.91609e-011 -2.3878e-011
71
root  -12.1004 37.6697 7.19973 172.655 24.3655 165.665
RightUpLeg  1.87823 2.92877 9.4831
RightLeg  -81.4931 -19.8096 18.7943
RightFoot  12.8505 14.0534 -31.2382
RightToes  -1.27222e-014 -6.36111e-015 6.36111e-015
Spine  -25.5915 -29.916 -18.4461
Spine1  -2.99803 -20.3309 51.3949
HEad  -13.2803 7.30787 -16.5532
LeftShoulder1  6.36111e-015 -1.33558e-015 6.49777e-015
LeftArm  32.1808 -17.7851 -50.1956
LeftForeArm  -40.0679 -50.4064 27.72
LeftHand  -1.63577 -3.04711 -8.37864
RightShoulder  -4.77083e-015 -6.36111e-015 -3.18055e-015
RightArm  81.1402 -46.2625 -31.2231
RightForeArm  -40.1176 10.5476 -29.4913
RightHand  -0.810952 5.08793 -0.852313
LeftUpLeg  43.7178 2.61393 12.9114
LeftLeg  12.8214 -6.11247 -0.825326
LeftFoot  4.25416 4.06623 -12.0521
LeftToes  9.54166e-015 -1.91609e-011 -2.3878e-011
